<svg width="23" height="21" viewBox="0 0 23 21" fill="none" xmlns="http://www.w3.org/2000/svg">
<path d="M16.6748 0.5C19.9434 0.5 22.4998 3.03689 22.5 6.29395C22.5 8.28599 21.6014 10.1389 19.918 12.1885C18.2292 14.2445 15.8039 16.4373 12.833 19.1182L12.832 19.1191L11.5 20.3252L10.168 19.1191L10.167 19.1182C7.19615 16.4373 4.77084 14.2445 3.08203 12.1885C1.39858 10.1389 0.5 8.28599 0.5 6.29395C0.500174 3.03689 3.05655 0.5 6.3252 0.5C8.17584 0.500061 9.95942 1.36014 11.1211 2.70703L11.5 3.14551L11.8789 2.70703C13.0406 1.36014 14.8242 0.50006 16.6748 0.5Z" fill="#880201" stroke="#FAFAFA"/>
</svg>
